<?xml version="1.0" standalone="no"?><!DOCTYPE svg PUBLIC "-//W3C//DTD SVG 1.1//EN" "http://www.w3.org/Graphics/SVG/1.1/DTD/svg11.dtd"><svg t="1628753022923" class="icon" viewBox="0 0 1024 1024" version="1.1" xmlns="http://www.w3.org/2000/svg" p-id="1530" xmlns:xlink="http://www.w3.org/1999/xlink" width="64" height="64"><defs><style type="text/css"></style></defs><path d="M679.44493876 339.09270118L572.6928896 121.8121564a66.42499583 66.42499583 0 0 0-60.15339724-38.43883007 68.17834599 68.17834599 0 0 0-60.15339726 38.43883007L345.22942668 339.09270118 106.23431476 382.52183551a69.7293865 69.7293865 0 0 0-15.71271475 3.97875612 436.38187623 436.38187623 0 0 0-12.47576065 103.51509501c0 6.00185242 0 11.93626828 0.3371827 17.87068418l87.12801486 80.92385278a433.61697794 433.61697794 0 0 1 692.91048959 0l87.19545143-81.93540096v-16.859136a437.05624166 437.05624166 0 0 0-12.88037992-105.3358817 63.99728025 63.99728025 0 0 0-14.63373006-3.77644647z" fill="#FCB74A" p-id="1531"></path><path d="M761.51521279 997.5431168a114.64212481 114.64212481 0 0 1-49.835606-12.61063371L512 885.59845375l-200.08422605 99.40146587a107.89847039 107.89847039 0 0 1-112.95621119-8.63187765A109.85413017 109.85413017 0 0 1 156.81172273 869.4136832l40.79910914-211.68331161-156.7899648-146.33730049a113.63057664 113.63057664 0 0 1-28.66053121-109.92156671l0.53949236-1.68591361a107.4264146 107.4264146 0 0 1 87.26288794-74.18019838l217.95491021-39.65268789L415.83548825 87.1497728a109.38207439 109.38207439 0 0 1 96.50169446-60.6928896 106.61717605 106.61717605 0 0 1 96.83887719 61.83931086l97.51324263 197.99369317 218.02234675 38.10164738a105.67306443 105.67306443 0 0 1 86.31877632 74.85456382 108.50539928 108.50539928 0 0 1-26.97461761 110.46105909l-0.87667506 0.80923852-156.04816281 147.0116659 39.45037823 212.22280398a107.89847039 107.89847039 0 0 1-41.47347455 106.01024717A100.5478871 100.5478871 0 0 1 761.51521279 997.5431168z m-248.90828389-202.30963201L748.027904 912.84281754a36.28086066 36.28086066 0 0 0 13.48730879 4.04619262 19.6240343 19.6240343 0 0 0 12.54319718-3.97875608l1.61847708-1.28129433a27.64898303 27.64898303 0 0 0 11.26190283-26.97461761l-47.20558078-255.71937484 187.67590194-176.75118182a27.64898303 27.64898303 0 0 0 6.7436544-28.45822157l-0.67436545-2.36027905a23.93997314 23.93997314 0 0 0-20.43327283-17.26375525h-1.61847706l-259.22607513-45.31735758L535.33304423 120.86804479a26.23281562 26.23281562 0 0 0-22.99586152-13.48730878 27.78385612 27.78385612 0 0 0-24.00740966 16.04989746L372.47379046 358.51442585l-261.24917145 47.20558081A26.30025216 26.30025216 0 0 0 89.77979801 424.3324928a33.718272 33.718272 0 0 0 7.89007566 29.26746008l187.87821158 175.33501442-49.36355021 256.2588672a28.86284083 28.86284083 0 0 0 11.32933941 26.97461759 26.30025216 26.30025216 0 0 0 26.97461758 1.75335017l1.2138578-0.60692891z" fill="#333333" p-id="1532"></path></svg>