<?xml version="1.0" standalone="no"?><!DOCTYPE svg PUBLIC "-//W3C//DTD SVG 1.1//EN" "http://www.w3.org/Graphics/SVG/1.1/DTD/svg11.dtd"><svg t="1617961851768" class="icon" viewBox="0 0 1024 1024" version="1.1" xmlns="http://www.w3.org/2000/svg" p-id="943" xmlns:xlink="http://www.w3.org/1999/xlink" width="64" height="64"><defs><style type="text/css"></style></defs><path d="M387.69777778 766.86222222c-60.32497778 0-109.22666667 48.90168889-109.22666667 109.22666667s48.90168889 109.22666667 109.22666667 109.22666666 109.22666667-48.90168889 109.22666666-109.22666666-48.90168889-109.22666667-109.22666666-109.22666667z m0 145.63555556c-20.10794667 0-36.40888889-16.30094222-36.4088889-36.40888889s16.30094222-36.40888889 36.4088889-36.40888889 36.40888889 16.30094222 36.40888888 36.40888889-16.30094222 36.40888889-36.40888888 36.40888889zM861.01333333 766.86222222c-60.32497778 0-109.22666667 48.90168889-109.22666667 109.22666667s48.90168889 109.22666667 109.22666667 109.22666666 109.22666667-48.90168889 109.22666667-109.22666666-48.90168889-109.22666667-109.22666667-109.22666667z m0 145.63555556c-20.10908445 0-36.40888889-16.30094222-36.40888889-36.40888889s16.29980445-36.40888889 36.40888889-36.40888889 36.40888889 16.30094222 36.40888889 36.40888889-16.29980445 36.40888889-36.40888889 36.40888889zM983.82734222 185.57610667c-31.51758222-38.98140445-83.89404445-38.35107555-95.75537778-37.66499556H239.27808l-6.78001778-42.18652444a36.64554667 36.64554667 0 0 0-0.62577778-3.05265778C225.93080888 78.90602667 204.13781333 38.68444445 160.14222222 38.68444445H60.01777778c-20.10794667 0-36.40888889 16.30094222-36.4088889 36.40888888s16.30094222 36.40888889 36.4088889 36.40888889h96.98531555c1.37898667 1.94104889 3.01169778 5.22922667 3.96629333 8.06115556l81.55363556 507.44092444c0.16497778 1.02513778 0.37432889 2.04458667 0.62577778 3.05265778 1.92853333 7.71413333 12.76928 47.41461333 36.88334222 71.52867555C308.09088 729.64323555 346.95054222 730.45333333 351.28888888 730.45333333h582.54222223c20.10794667 0 36.40888889-16.30094222 36.40888889-36.40888888s-16.30094222-36.40888889-36.40888889-36.4088889H351.66776888c-3.57262222-0.14791111-14.40426667-1.79882667-20.14549333-7.5411911-7.12248889-7.12248889-14.38606222-25.43047111-17.38638222-36.40206223L309.49603555 584.81777778h579.79335111c16.53532445 0 30.99420445-11.14339555 35.20739556-27.13372445 0.35726222-1.35850667 36.21660445-137.26037333 71.56622222-253.54922666 15.16088889-49.87676445 11.04440889-89.76611555-12.23566222-118.55872z m-57.43502222 97.38126222C900.17450666 369.20661333 873.71889778 465.97461333 861.32963555 512H297.79285333l-46.81159111-291.27111111h638.30812444c1.02058667 0 2.04231111-0.04323555 3.05948445-0.12856889 4.02773333-0.34133333 26.28721778 0.16497778 34.85468444 10.75996445 6.86990222 8.49578667 6.57408 27.30211555-0.81123555 51.59708444z" p-id="944" fill="#ffffff"></path></svg>