<?xml version="1.0" standalone="no"?><!DOCTYPE svg PUBLIC "-//W3C//DTD SVG 1.1//EN" "http://www.w3.org/Graphics/SVG/1.1/DTD/svg11.dtd"><svg t="1623118207828" class="icon" viewBox="0 0 1024 1024" version="1.1" xmlns="http://www.w3.org/2000/svg" p-id="1155" xmlns:xlink="http://www.w3.org/1999/xlink" width="64" height="64"><defs><style type="text/css"></style></defs><path d="M963.94596503 469.14431052h-408.50773333v-408.50773334c0-23.57111467-19.28578845-42.85568948-42.85690311-42.85568948-23.56990103 0-42.85447585 19.28457482-42.85447584 42.85568948v408.50773334H61.21790578c-23.56990103 0-42.85568948 19.28457482-42.85568948 42.85447585 0 23.57111467 19.28457482 42.85568948 42.85568948 42.85568948h408.50773333v408.50773333c0 23.56990103 19.28457482 42.85447585 42.85447586 42.85447585 23.57111467 0 42.85568948-19.28457482 42.85568948-42.85568948V554.85568948h408.50773333c23.56990103 0 42.85568948-19.28457482 42.85568947-42.85568948 0.00121363-23.56990103-19.28457482-42.85568948-42.85326222-42.85568948z" p-id="1156" fill="#EF6366"></path></svg>