<?xml version="1.0" standalone="no"?><!DOCTYPE svg PUBLIC "-//W3C//DTD SVG 1.1//EN" "http://www.w3.org/Graphics/SVG/1.1/DTD/svg11.dtd"><svg t="1621822899746" class="icon" viewBox="0 0 1024 1024" version="1.1" xmlns="http://www.w3.org/2000/svg" p-id="1802" xmlns:xlink="http://www.w3.org/1999/xlink" width="128" height="128"><defs><style type="text/css"></style></defs><path d="M336.10586571 468.28849754H122.4108852c-52.19578311 0-94.68622786-42.49044475-94.68622787-94.68622787v-213.63580162c0-52.19578311 42.49044475-94.68622786 94.68622787-94.68622786h213.69498051c52.19578311 0 94.68622786 42.49044475 94.68622787 94.68622786v213.69498052c0 52.19578311-42.49044475 94.62704897-94.68622787 94.62704897z m-213.69498051-331.99358645c-13.07853522 0-23.67155697 10.59302174-23.67155697 23.67155696v213.69498052c0 13.07853522 10.59302174 23.67155697 23.67155697 23.67155696h213.69498051c13.07853522 0 23.67155697-10.59302174 23.67155698-23.67155696V159.96646805c0-13.07853522-10.59302174-23.67155697-23.67155698-23.67155696H122.4108852zM336.10586571 993.44198885H122.4108852c-52.19578311 0-94.68622786-42.49044475-94.68622787-94.68622787v-213.69498052c0-52.19578311 42.49044475-94.68622786 94.68622787-94.68622787h213.69498051c52.19578311 0 94.68622786 42.49044475 94.68622787 94.68622787v213.69498052c0 52.19578311-42.49044475 94.68622786-94.68622787 94.68622787z m-213.69498051-332.05276535c-13.07853522 0-23.67155697 10.59302174-23.67155697 23.67155696v213.69498052c0 13.07853522 10.59302174 23.67155697 23.67155697 23.67155696h213.69498051c13.07853522 0 23.67155697-10.59302174 23.67155698-23.67155696v-213.69498052c0-13.07853522-10.59302174-23.67155697-23.67155698-23.67155696H122.4108852zM866.46709955 993.44198885h-213.69498051c-52.19578311 0-94.68622786-42.49044475-94.68622787-94.68622787v-213.69498052c0-52.19578311 42.49044475-94.68622786 94.68622787-94.68622787h213.69498051c52.19578311 0 94.68622786 42.49044475 94.68622787 94.68622787v213.69498052c0 52.19578311-42.49044475 94.68622786-94.68622787 94.68622787z m-213.69498051-332.05276535c-13.07853522 0-23.67155697 10.59302174-23.67155697 23.67155696v213.69498052c0 13.07853522 10.59302174 23.67155697 23.67155697 23.67155696h213.69498051c13.07853522 0 23.67155697-10.59302174 23.67155696-23.67155696v-213.69498052c0-13.07853522-10.59302174-23.67155697-23.67155696-23.67155696h-213.69498051z" fill="#969696" p-id="1803"></path><path d="M753.6721306 506.57724093c-24.26334589 0-48.46751289-9.23190722-66.93132732-27.69572165L535.65709094 327.79780694c-36.92762887-36.92762887-36.92762887-96.99420467 0-133.92183354l151.08371234-151.08371233c36.92762887-36.92762887 96.99420467-36.92762887 133.92183354 0l151.08371234 151.08371233c36.92762887 36.92762887 36.92762887 96.99420467 0 133.92183354L820.66263682 478.88151928a94.4495123 94.4495123 0 0 1-66.99050622 27.69572165z m0-420.46603061c-6.03624703 0-12.13167294 2.30797681-16.74762655 6.92393041l-151.08371234 151.08371234a23.71890008 23.71890008 0 0 0 0 33.49525311l151.08371234 151.08371233a23.71890008 23.71890008 0 0 0 33.49525311 0L921.5034695 277.61410618a23.71890008 23.71890008 0 0 0 0-33.49525311L770.41975716 93.03514073c-4.61595361-4.61595361-10.65220063-6.92393041-16.74762656-6.92393041z" fill="#fd5a45" p-id="1804" data-spm-anchor-id="a313x.7781069.0.i8" class=""></path></svg>