<svg width="1024" height="1024" xmlns="http://www.w3.org/2000/svg" p-id="2000" version="1.1" class="icon" t="1628499413068">
 <defs>
  <style type="text/css"/>
 </defs>
 <g>
  <title>background</title>
  <rect fill="none" id="canvas_background" height="762" width="1662" y="-1" x="-1"/>
 </g>
 <g>
  <title>Layer 1</title>
  <path id="svg_1" p-id="2001" fill="#4a4a4a" d="m64,512c0,247.424 200.576,448 448,448s448,-200.576 448,-448s-200.576,-448 -448,-448s-448,200.576 -448,448zm512,-255.499l0,356.516l82.855,-82.859c24.883,-24.885 65.602,-24.885 90.485,0c24.881,24.882 24.881,65.599 0,90.482l-189.28,189.29a64.115,64.115 0 0 1 -2.72,2.915c-12.466,12.467 -28.907,18.686 -45.34,18.661c-16.433,0.025 -32.874,-6.194 -45.34,-18.661a64.115,64.115 0 0 1 -2.72,-2.915l-189.28,-189.291c-24.881,-24.882 -24.881,-65.599 0,-90.482c24.883,-24.885 65.602,-24.885 90.485,0l82.855,82.86l0,-356.516c0,-35.2 28.8,-64 64,-64s64,28.8 64,64z"/>
  <ellipse id="svg_3" cy="356.460217" cx="461.999946" fill-opacity="null" stroke-opacity="null" stroke-width="0" stroke="#000" fill="#fff"/>
  <ellipse stroke="#000" ry="70.909093" rx="64.545453" id="svg_4" cy="260.096605" cx="511.999999" stroke-opacity="null" stroke-width="0" fill="#ffffff"/>
  <rect stroke="#000" id="svg_5" height="530.909053" width="129.090906" y="259.306072" x="447.454488" stroke-opacity="null" stroke-width="0" fill="#ffffff"/>
  <ellipse stroke="#000" ry="63.636357" rx="64.545448" id="svg_8" cy="574.64203" cx="319.272673" stroke-opacity="null" stroke-width="0" fill="#ffffff"/>
  <path d="m367.454498,647.369324c0,5.454529 3.360779,9.493896 21.818176,21.818176c19.715179,13.164124 36.138275,22.442078 45.454559,25.454529c7.132904,2.306458 9.090881,3.636353 9.090881,5.454529l1.818207,0l1.818176,0" id="svg_13" fill-opacity="null" stroke-opacity="null" stroke-width="0" stroke="#000" fill="none"/>
  <path d="m414.727234,672.823853c3.636353,1.818176 3.95108,3.368591 5.454529,5.454529c2.377167,3.298157 2.802216,6.397644 10.909088,12.727295c8.356323,6.524414 14.691467,15.229797 21.818176,18.181824c3.359589,1.391602 5.454559,1.818176 7.272736,3.636353c1.818176,1.818176 3.368591,2.132874 5.454559,3.636353c3.298157,2.377136 3.636353,3.636353 7.272705,3.636353c1.818176,0 5.277863,4.044006 9.090912,5.45459c7.030884,2.600952 14.545471,5.454529 21.818176,7.272705l1.818207,1.818176" id="svg_14" fill-opacity="null" stroke-opacity="null" stroke-width="0" stroke="#000" fill="none"/>
  <path d="m567.454468,698.278381c1.818176,-1.818176 3.636414,-1.818176 7.272766,-1.818176c10.909058,0 16.363647,0 27.272705,0c21.818176,0 32.727295,0 47.272705,0l1.818176,0" id="svg_15" fill-opacity="null" stroke-opacity="null" stroke-width="0" stroke="#000" fill="none"/>
  <path d="m692.909058,558.278381c0,-1.818176 -3.263428,-1.606384 -5.45459,1.818176c-6.274536,9.806519 -16.038757,16.826111 -23.636353,21.818176c-12.250793,8.049561 -20.45636,11.766235 -32.727234,18.181824c-15.2005,7.947327 -18.858215,11.609253 -25.45459,16.363647c-6.257813,4.510376 -10.170837,8.205444 -14.54541,10.909119c-4.89093,3.022766 -8.27124,7.191223 -14.545471,9.090881c-1.740173,0.526855 -7.272766,1.818176 -9.090942,5.454529l-3.636353,1.818176" id="svg_16" fill-opacity="null" stroke-opacity="null" stroke-width="0" stroke="#000" fill="none"/>
  <path id="svg_19" d="m270.23623,619.690695c0,0 207.05802,204.70508 206.23252,203.52864c0.8255,1.17644 24.35482,9.4117 23.52932,8.23526c0.8255,1.17644 33.76655,-1.17649 32.94105,-2.35293c0.8255,1.17644 -16.82149,2.35291 -17.64699,1.17647" stroke-opacity="null" stroke-width="0" stroke="#000" fill="#ffffff"/>
  <path id="svg_21" stroke-opacity="null" stroke-width="0" stroke="#000" fill="#0e1c1c"/>
  <path id="svg_22" stroke-opacity="null" stroke-width="0" stroke="#000" fill="#0e1c1c"/>
  <path id="svg_23" d="m503.739135,830.434805l27.56521,-1.73915l21.73913,-10.43479l207.82609,-208.69565l-31.30435,-86.95652l-44.34782,-6.95652l-13.04348,5.21739" stroke-opacity="null" stroke-width="0" stroke="#000" fill="#ffffff"/>
  <path id="svg_24" d="m666.34783,523.47827c0,0 -89.56522,86.95653 -89.82609,86.95651c0.26087,0.00002 -130.17392,168.69567 -130.43478,168.69565c0.26086,0.00002 62,45.21741 61.73913,45.2174c0.26087,0.00001 200.26087,-231.30434 200,-231.30435c0.26087,0.00001 -41.47826,-69.56521 -41.47826,-69.56521z" stroke-opacity="null" stroke-width="0" stroke="#000" fill="#ffffff"/>
  <path id="svg_25" d="m272.43478,617.39132l94.52174,-86.08697l106.08696,106.08695l-8.69565,152.17392l-9.56522,6.08695" stroke-opacity="null" stroke-width="null" stroke="null" fill="#ffffff"/>
  <ellipse ry="20.869566" rx="20" id="svg_26" cy="600.000012" cx="721.130439" stroke-opacity="null" stroke-width="0" stroke="#000" fill="#ffffff"/>
  <ellipse stroke="null" ry="64.782607" rx="63.478263" id="svg_27" cy="574.347843" cx="705.478272" stroke-opacity="null" stroke-width="null" fill="#ffffff"/>
 </g>
</svg>