<?xml version="1.0" standalone="no"?><!DOCTYPE svg PUBLIC "-//W3C//DTD SVG 1.1//EN" "http://www.w3.org/Graphics/SVG/1.1/DTD/svg11.dtd"><svg t="1617961547282" class="icon" viewBox="0 0 1024 1024" version="1.1" xmlns="http://www.w3.org/2000/svg" p-id="1342" xmlns:xlink="http://www.w3.org/1999/xlink" width="64" height="64"><defs><style type="text/css"></style></defs><path d="M336.21333333 554.66666666L190.57777777 554.66666666c-80.09955555 0-145.63555555 65.536-145.63555556 145.63555555l0 145.63555556c0 80.09955555 65.536 145.63555555 145.63555556 145.63555556l145.63555556 0c80.09955555 0 145.63555555-65.536 145.63555555-145.63555556l0-145.63555556C481.84888888 620.20266666 416.31288888 554.66666666 336.21333333 554.66666666zM409.03111111 845.93777777c0 40.04977778-32.768 72.81777778-72.81777778 72.81777778L190.57777777 918.75555555c-40.04977778 0-72.81777778-32.768-72.81777778-72.81777778l0-145.63555556c0-40.04977778 32.768-72.81777778 72.81777778-72.81777777l145.63555556 0c40.04977778 0 72.81777778 32.768 72.81777778 72.81777777L409.03111111 845.93777777zM845.93777777 44.94222221l-145.63555556 0C620.20266666 44.94222221 554.66666666 110.47822221 554.66666666 190.57777777l0 145.63555556c0 80.09955555 65.536 145.63555555 145.63555555 145.63555555l145.63555556 0c80.09955555 0 145.63555555-65.536 145.63555556-145.63555555L991.57333333 190.57777777C991.57333333 110.47822221 926.03733333 44.94222221 845.93777777 44.94222221zM918.75555555 336.21333333c0 40.04977778-32.768 72.81777778-72.81777778 72.81777778l-145.63555556 0C660.25244444 409.03111111 627.48444444 376.26311111 627.48444444 336.21333333L627.48444444 190.57777777c0-40.04977778 32.768-72.81777778 72.81777777-72.81777778l145.63555556 0c40.04977778 0 72.81777778 32.768 72.81777778 72.81777778L918.75555555 336.21333333zM845.93777777 554.66666666l-145.63555556 0c-80.09955555 0-145.63555555 65.536-145.63555555 145.63555555l0 145.63555556c0 80.09955555 65.536 145.63555555 145.63555555 145.63555556l145.63555556 0c80.09955555 0 145.63555555-65.536 145.63555556-145.63555556l0-145.63555556C991.57333333 620.20266666 926.03733333 554.66666666 845.93777777 554.66666666zM918.75555555 845.93777777c0 40.04977778-32.768 72.81777778-72.81777778 72.81777778l-145.63555556 0c-40.04977778 0-72.81777778-32.768-72.81777777-72.81777778l0-145.63555556c0-40.04977778 32.768-72.81777778 72.81777777-72.81777777l145.63555556 0c40.04977778 0 72.81777778 32.768 72.81777778 72.81777777L918.75555555 845.93777777zM336.21333333 44.94222221L190.57777777 44.94222221C110.47822221 44.94222221 44.94222221 110.47822221 44.94222221 190.57777777l0 145.63555556c0 80.09955555 65.536 145.63555555 145.63555556 145.63555555l145.63555556 0c80.09955555 0 145.63555555-65.536 145.63555555-145.63555555L481.84888888 190.57777777C481.84888888 110.47822221 416.31288888 44.94222221 336.21333333 44.94222221zM409.03111111 336.21333333c0 40.04977778-32.768 72.81777778-72.81777778 72.81777778L190.57777777 409.03111111C150.52799999 409.03111111 117.75999999 376.26311111 117.75999999 336.21333333L117.75999999 190.57777777c0-40.04977778 32.768-72.81777778 72.81777778-72.81777778l145.63555556 0c40.04977778 0 72.81777778 32.768 72.81777778 72.81777778L409.03111111 336.21333333z" fill="#ffffff" p-id="1343"></path></svg>